<mxfile host="app.diagrams.net" modified="2023-10-06T13:57:27.074Z" agent="Mozilla/5.0 (Windows NT 10.0; Win64; x64) AppleWebKit/537.36 (KHTML, like Gecko) Chrome/117.0.0.0 Safari/537.36" etag="rhNe0q4gFumaIQ4xvvOF" version="22.0.3" type="device">
  <diagram name="2324" id="9okomMAcntQuOta_2Ip1">
    <mxGraphModel dx="229" dy="120" grid="1" gridSize="10" guides="1" tooltips="1" connect="1" arrows="1" fold="1" page="1" pageScale="1" pageWidth="1169" pageHeight="827" math="0" shadow="0">
      <root>
        <mxCell id="a0xubcgDf1r4rpU3K-4--0" />
        <mxCell id="a0xubcgDf1r4rpU3K-4--1" parent="a0xubcgDf1r4rpU3K-4--0" />
        <mxCell id="a0xubcgDf1r4rpU3K-4--2" value="" style="ellipse;whiteSpace=wrap;html=1;aspect=fixed;strokeWidth=1;fillColor=#f5f5f5;strokeColor=#666666;fontColor=#333333;" parent="a0xubcgDf1r4rpU3K-4--1" vertex="1">
          <mxGeometry x="650" y="162" width="40" height="40" as="geometry" />
        </mxCell>
        <mxCell id="a0xubcgDf1r4rpU3K-4--3" value="" style="ellipse;whiteSpace=wrap;html=1;aspect=fixed;strokeWidth=1;fillColor=#f5f5f5;strokeColor=#666666;fontColor=#333333;" parent="a0xubcgDf1r4rpU3K-4--1" vertex="1">
          <mxGeometry x="169" y="162" width="40" height="40" as="geometry" />
        </mxCell>
        <mxCell id="a0xubcgDf1r4rpU3K-4--4" value="" style="rounded=0;whiteSpace=wrap;html=1;strokeColor=#6c8ebf;dashed=1;strokeWidth=2;fillColor=#dae8fc;" parent="a0xubcgDf1r4rpU3K-4--1" vertex="1">
          <mxGeometry x="381.88" y="201" width="103" height="51" as="geometry" />
        </mxCell>
        <mxCell id="YOjwBTMzrh_71FQqVvZ7-6" style="edgeStyle=orthogonalEdgeStyle;rounded=0;orthogonalLoop=1;jettySize=auto;html=1;entryX=1;entryY=0.5;entryDx=0;entryDy=0;dashed=1;" parent="a0xubcgDf1r4rpU3K-4--1" source="a0xubcgDf1r4rpU3K-4--5" target="a0xubcgDf1r4rpU3K-4--4" edge="1">
          <mxGeometry relative="1" as="geometry" />
        </mxCell>
        <mxCell id="a0xubcgDf1r4rpU3K-4--5" value="" style="rounded=0;whiteSpace=wrap;html=1;strokeColor=#6c8ebf;dashed=1;strokeWidth=2;fillColor=#dae8fc;" parent="a0xubcgDf1r4rpU3K-4--1" vertex="1">
          <mxGeometry x="620" y="202" width="100" height="50" as="geometry" />
        </mxCell>
        <mxCell id="a0xubcgDf1r4rpU3K-4--6" value="" style="rounded=0;whiteSpace=wrap;html=1;strokeColor=#6c8ebf;dashed=1;strokeWidth=2;fillColor=#dae8fc;" parent="a0xubcgDf1r4rpU3K-4--1" vertex="1">
          <mxGeometry x="620.24" y="342" width="100" height="70" as="geometry" />
        </mxCell>
        <mxCell id="a0xubcgDf1r4rpU3K-4--7" value="" style="rounded=0;whiteSpace=wrap;html=1;strokeColor=#6c8ebf;dashed=1;strokeWidth=2;fillColor=#dae8fc;" parent="a0xubcgDf1r4rpU3K-4--1" vertex="1">
          <mxGeometry x="139.12" y="342" width="100" height="70" as="geometry" />
        </mxCell>
        <mxCell id="YOjwBTMzrh_71FQqVvZ7-4" value="" style="edgeStyle=orthogonalEdgeStyle;rounded=0;orthogonalLoop=1;jettySize=auto;html=1;" parent="a0xubcgDf1r4rpU3K-4--1" source="a0xubcgDf1r4rpU3K-4--8" target="a0xubcgDf1r4rpU3K-4--11" edge="1">
          <mxGeometry relative="1" as="geometry" />
        </mxCell>
        <mxCell id="YOjwBTMzrh_71FQqVvZ7-5" style="edgeStyle=orthogonalEdgeStyle;rounded=0;orthogonalLoop=1;jettySize=auto;html=1;entryX=0;entryY=0.5;entryDx=0;entryDy=0;dashed=1;" parent="a0xubcgDf1r4rpU3K-4--1" source="a0xubcgDf1r4rpU3K-4--8" target="a0xubcgDf1r4rpU3K-4--4" edge="1">
          <mxGeometry relative="1" as="geometry" />
        </mxCell>
        <mxCell id="a0xubcgDf1r4rpU3K-4--8" value="" style="rounded=0;whiteSpace=wrap;html=1;strokeColor=#6c8ebf;dashed=1;fillColor=#dae8fc;strokeWidth=2;" parent="a0xubcgDf1r4rpU3K-4--1" vertex="1">
          <mxGeometry x="139" y="202" width="100" height="50" as="geometry" />
        </mxCell>
        <mxCell id="a0xubcgDf1r4rpU3K-4--9" value="portfolio-service" style="rounded=1;whiteSpace=wrap;html=1;fillColor=#d5e8d4;strokeColor=#82b366;" parent="a0xubcgDf1r4rpU3K-4--1" vertex="1">
          <mxGeometry x="149" y="212" width="78" height="30" as="geometry" />
        </mxCell>
        <mxCell id="a0xubcgDf1r4rpU3K-4--10" value="product-service" style="rounded=1;whiteSpace=wrap;html=1;fillColor=#d5e8d4;strokeColor=#82b366;" parent="a0xubcgDf1r4rpU3K-4--1" vertex="1">
          <mxGeometry x="630" y="212" width="80" height="30" as="geometry" />
        </mxCell>
        <mxCell id="a0xubcgDf1r4rpU3K-4--11" value="portfolio-service" style="rounded=1;whiteSpace=wrap;html=1;fillColor=#f5f5f5;strokeColor=#666666;fontColor=#333333;" parent="a0xubcgDf1r4rpU3K-4--1" vertex="1">
          <mxGeometry x="89" y="182" width="200" height="20" as="geometry" />
        </mxCell>
        <mxCell id="a0xubcgDf1r4rpU3K-4--12" value="product-service" style="rounded=1;whiteSpace=wrap;html=1;fillColor=#f5f5f5;strokeColor=#666666;fontColor=#333333;" parent="a0xubcgDf1r4rpU3K-4--1" vertex="1">
          <mxGeometry x="570" y="182" width="200" height="20" as="geometry" />
        </mxCell>
        <mxCell id="a0xubcgDf1r4rpU3K-4--13" value="mongo:latest" style="shadow=0;dashed=0;html=1;strokeColor=none;labelPosition=center;verticalLabelPosition=bottom;verticalAlign=top;outlineConnect=0;align=center;shape=mxgraph.office.databases.database;fillColor=#7FBA42;" parent="a0xubcgDf1r4rpU3K-4--1" vertex="1">
          <mxGeometry x="656.37" y="352" width="23.63" height="30" as="geometry" />
        </mxCell>
        <mxCell id="a0xubcgDf1r4rpU3K-4--14" value="mysql:latest" style="shadow=0;dashed=0;html=1;strokeColor=none;labelPosition=center;verticalLabelPosition=bottom;verticalAlign=top;outlineConnect=0;align=center;shape=mxgraph.office.databases.database;fillColor=#2072B8;" parent="a0xubcgDf1r4rpU3K-4--1" vertex="1">
          <mxGeometry x="179.12" y="352" width="21.75" height="29.5" as="geometry" />
        </mxCell>
        <mxCell id="a0xubcgDf1r4rpU3K-4--17" value="user-service" style="rounded=1;whiteSpace=wrap;html=1;fillColor=#d5e8d4;strokeColor=#82b366;" parent="a0xubcgDf1r4rpU3K-4--1" vertex="1">
          <mxGeometry x="392.5" y="211" width="80" height="31" as="geometry" />
        </mxCell>
        <mxCell id="a0xubcgDf1r4rpU3K-4--18" value="" style="ellipse;whiteSpace=wrap;html=1;aspect=fixed;strokeWidth=1;fillColor=#f5f5f5;strokeColor=#666666;fontColor=#333333;" parent="a0xubcgDf1r4rpU3K-4--1" vertex="1">
          <mxGeometry x="411.12" y="161" width="40" height="41" as="geometry" />
        </mxCell>
        <mxCell id="a0xubcgDf1r4rpU3K-4--19" value="user-service" style="rounded=1;whiteSpace=wrap;html=1;fillColor=#f5f5f5;strokeColor=#666666;fontColor=#333333;" parent="a0xubcgDf1r4rpU3K-4--1" vertex="1">
          <mxGeometry x="319.12" y="181" width="220" height="21" as="geometry" />
        </mxCell>
        <mxCell id="a0xubcgDf1r4rpU3K-4--20" value="" style="endArrow=classic;startArrow=classic;html=1;exitX=0.5;exitY=0;exitDx=0;exitDy=0;" parent="a0xubcgDf1r4rpU3K-4--1" target="a0xubcgDf1r4rpU3K-4--21" edge="1">
          <mxGeometry width="50" height="50" relative="1" as="geometry">
            <mxPoint x="431.12" y="161" as="sourcePoint" />
            <mxPoint x="431.12" y="141" as="targetPoint" />
          </mxGeometry>
        </mxCell>
        <mxCell id="a0xubcgDf1r4rpU3K-4--21" value="" style="pointerEvents=1;shadow=0;dashed=0;html=1;strokeColor=none;fillColor=#505050;labelPosition=center;verticalLabelPosition=bottom;verticalAlign=top;outlineConnect=0;align=center;shape=mxgraph.office.devices.cell_phone_android_standalone;" parent="a0xubcgDf1r4rpU3K-4--1" vertex="1">
          <mxGeometry x="424" y="80" width="16" height="34" as="geometry" />
        </mxCell>
        <mxCell id="a0xubcgDf1r4rpU3K-4--22" value="&lt;div&gt;ports:&lt;/div&gt;&lt;div&gt;8082:&lt;span style=&quot;background-color: initial;&quot;&gt;8082&lt;/span&gt;&lt;/div&gt;" style="text;html=1;strokeColor=none;fillColor=none;align=left;verticalAlign=middle;whiteSpace=wrap;rounded=0;" parent="a0xubcgDf1r4rpU3K-4--1" vertex="1">
          <mxGeometry x="89" y="152" width="80" height="30" as="geometry" />
        </mxCell>
        <mxCell id="a0xubcgDf1r4rpU3K-4--23" value="&lt;div&gt;ports:&lt;/div&gt;&lt;div&gt;8080:&lt;span style=&quot;background-color: initial;&quot;&gt;8080&lt;/span&gt;&lt;/div&gt;" style="text;html=1;strokeColor=none;fillColor=none;align=left;verticalAlign=middle;whiteSpace=wrap;rounded=0;" parent="a0xubcgDf1r4rpU3K-4--1" vertex="1">
          <mxGeometry x="570" y="150" width="109" height="30" as="geometry" />
        </mxCell>
        <mxCell id="a0xubcgDf1r4rpU3K-4--24" value="POD" style="rounded=0;whiteSpace=wrap;html=1;strokeColor=#6c8ebf;dashed=1;fillColor=#dae8fc;strokeWidth=2;" parent="a0xubcgDf1r4rpU3K-4--1" vertex="1">
          <mxGeometry x="139.13" y="617" width="48" height="25" as="geometry" />
        </mxCell>
        <mxCell id="a0xubcgDf1r4rpU3K-4--25" value="service" style="rounded=1;whiteSpace=wrap;html=1;fillColor=#f5f5f5;strokeColor=#666666;fontColor=#333333;" parent="a0xubcgDf1r4rpU3K-4--1" vertex="1">
          <mxGeometry x="138.25" y="597" width="50" height="20" as="geometry" />
        </mxCell>
        <mxCell id="a0xubcgDf1r4rpU3K-4--26" value="" style="ellipse;whiteSpace=wrap;html=1;aspect=fixed;strokeWidth=1;fillColor=#f5f5f5;strokeColor=#666666;fontColor=#333333;" parent="a0xubcgDf1r4rpU3K-4--1" vertex="1">
          <mxGeometry x="169" y="302" width="40" height="40" as="geometry" />
        </mxCell>
        <mxCell id="a0xubcgDf1r4rpU3K-4--27" value="mysql-portfolio" style="rounded=1;whiteSpace=wrap;html=1;fillColor=#f5f5f5;strokeColor=#666666;fontColor=#333333;" parent="a0xubcgDf1r4rpU3K-4--1" vertex="1">
          <mxGeometry x="89" y="322" width="200.12" height="20" as="geometry" />
        </mxCell>
        <mxCell id="a0xubcgDf1r4rpU3K-4--28" value="&lt;div&gt;&lt;span&gt;ports:&amp;nbsp;&lt;/span&gt;&lt;br&gt;&lt;/div&gt;3307:3306" style="text;html=1;strokeColor=none;fillColor=none;align=left;verticalAlign=middle;whiteSpace=wrap;rounded=0;" parent="a0xubcgDf1r4rpU3K-4--1" vertex="1">
          <mxGeometry x="89" y="292" width="109" height="30" as="geometry" />
        </mxCell>
        <mxCell id="a0xubcgDf1r4rpU3K-4--29" value="" style="endArrow=classic;startArrow=classic;html=1;exitX=0.5;exitY=1;exitDx=0;exitDy=0;entryX=0.5;entryY=0;entryDx=0;entryDy=0;" parent="a0xubcgDf1r4rpU3K-4--1" source="a0xubcgDf1r4rpU3K-4--8" target="a0xubcgDf1r4rpU3K-4--26" edge="1">
          <mxGeometry width="50" height="50" relative="1" as="geometry">
            <mxPoint x="459" y="352" as="sourcePoint" />
            <mxPoint x="479" y="382" as="targetPoint" />
          </mxGeometry>
        </mxCell>
        <mxCell id="a0xubcgDf1r4rpU3K-4--30" value="" style="ellipse;whiteSpace=wrap;html=1;aspect=fixed;strokeWidth=1;fillColor=#f5f5f5;strokeColor=#666666;fontColor=#333333;" parent="a0xubcgDf1r4rpU3K-4--1" vertex="1">
          <mxGeometry x="650.12" y="302" width="40" height="40" as="geometry" />
        </mxCell>
        <mxCell id="a0xubcgDf1r4rpU3K-4--31" value="mongo-products" style="rounded=1;whiteSpace=wrap;html=1;fillColor=#f5f5f5;strokeColor=#666666;fontColor=#333333;" parent="a0xubcgDf1r4rpU3K-4--1" vertex="1">
          <mxGeometry x="570.12" y="322" width="200.12" height="20" as="geometry" />
        </mxCell>
        <mxCell id="a0xubcgDf1r4rpU3K-4--32" value="&lt;div&gt;&lt;span&gt;ports:&amp;nbsp;&lt;/span&gt;&lt;br&gt;&lt;/div&gt;27017:27017" style="text;html=1;strokeColor=none;fillColor=none;align=left;verticalAlign=middle;whiteSpace=wrap;rounded=0;" parent="a0xubcgDf1r4rpU3K-4--1" vertex="1">
          <mxGeometry x="570" y="292" width="80" height="30" as="geometry" />
        </mxCell>
        <mxCell id="a0xubcgDf1r4rpU3K-4--33" value="" style="endArrow=classic;startArrow=classic;html=1;exitX=0.5;exitY=1;exitDx=0;exitDy=0;entryX=0.5;entryY=0;entryDx=0;entryDy=0;" parent="a0xubcgDf1r4rpU3K-4--1" source="a0xubcgDf1r4rpU3K-4--5" target="a0xubcgDf1r4rpU3K-4--30" edge="1">
          <mxGeometry width="50" height="50" relative="1" as="geometry">
            <mxPoint x="390" y="262" as="sourcePoint" />
            <mxPoint x="669.9999999999999" y="292" as="targetPoint" />
          </mxGeometry>
        </mxCell>
        <mxCell id="a0xubcgDf1r4rpU3K-4--34" value="&lt;div style=&quot;text-align: left;&quot;&gt;&lt;span style=&quot;background-color: initial;&quot;&gt;ports:&lt;/span&gt;&lt;/div&gt;&lt;div style=&quot;text-align: left;&quot;&gt;&lt;span style=&quot;background-color: initial;&quot;&gt;8081:&lt;/span&gt;&lt;span style=&quot;background-color: initial;&quot;&gt;8081&lt;/span&gt;&lt;br&gt;&lt;/div&gt;" style="text;html=1;strokeColor=none;fillColor=none;align=right;verticalAlign=middle;whiteSpace=wrap;rounded=0;" parent="a0xubcgDf1r4rpU3K-4--1" vertex="1">
          <mxGeometry x="316.88" y="151" width="65" height="31" as="geometry" />
        </mxCell>
        <mxCell id="a0xubcgDf1r4rpU3K-4--35" value="&lt;div&gt;&lt;b&gt;&lt;font style=&quot;font-size: 15px&quot;&gt;Deployment of plant AR &amp;amp; portfolio microservices with Docker Compose&lt;/font&gt;&lt;/b&gt;&lt;/div&gt;" style="text;html=1;strokeColor=none;fillColor=none;align=center;verticalAlign=middle;whiteSpace=wrap;rounded=0;" parent="a0xubcgDf1r4rpU3K-4--1" vertex="1">
          <mxGeometry x="82" y="40" width="698" height="20" as="geometry" />
        </mxCell>
        <mxCell id="a0xubcgDf1r4rpU3K-4--38" value="mysql_portfolio_data" style="shape=cylinder3;whiteSpace=wrap;html=1;boundedLbl=1;backgroundOutline=1;size=5;verticalAlign=top;labelPosition=center;verticalLabelPosition=bottom;align=center;fillColor=#ffe6cc;strokeColor=#d79b00;" parent="a0xubcgDf1r4rpU3K-4--1" vertex="1">
          <mxGeometry x="169" y="474" width="40" height="25" as="geometry" />
        </mxCell>
        <mxCell id="a0xubcgDf1r4rpU3K-4--40" value="mongodb_product_data" style="shape=cylinder3;whiteSpace=wrap;html=1;boundedLbl=1;backgroundOutline=1;size=5;verticalAlign=top;labelPosition=center;verticalLabelPosition=bottom;align=center;fillColor=#ffe6cc;strokeColor=#d79b00;" parent="a0xubcgDf1r4rpU3K-4--1" vertex="1">
          <mxGeometry x="650.24" y="474" width="40" height="25" as="geometry" />
        </mxCell>
        <mxCell id="a0xubcgDf1r4rpU3K-4--41" value="container" style="rounded=1;whiteSpace=wrap;html=1;fillColor=#d5e8d4;strokeColor=#82b366;" parent="a0xubcgDf1r4rpU3K-4--1" vertex="1">
          <mxGeometry x="69.75" y="619" width="59.5" height="23" as="geometry" />
        </mxCell>
        <mxCell id="a0xubcgDf1r4rpU3K-4--42" value="volume" style="shape=cylinder3;whiteSpace=wrap;html=1;boundedLbl=1;backgroundOutline=1;size=5;verticalAlign=top;labelPosition=center;verticalLabelPosition=bottom;align=center;fillColor=#ffe6cc;strokeColor=#d79b00;" parent="a0xubcgDf1r4rpU3K-4--1" vertex="1">
          <mxGeometry x="79.5" y="570" width="40" height="25" as="geometry" />
        </mxCell>
        <mxCell id="a0xubcgDf1r4rpU3K-4--43" value="&lt;div&gt;&lt;span style=&quot;background-color: initial;&quot;&gt;volumes:&lt;/span&gt;&lt;br&gt;&lt;/div&gt;&lt;div&gt;&amp;nbsp;mongodb_data_container:&lt;/div&gt;&lt;div&gt;&amp;nbsp;mysql_data_container:&lt;/div&gt;" style="text;html=1;align=left;verticalAlign=middle;resizable=0;points=[];autosize=1;strokeColor=#d79b00;fillColor=#ffe6cc;" parent="a0xubcgDf1r4rpU3K-4--1" vertex="1">
          <mxGeometry x="222.5" y="582" width="170" height="60" as="geometry" />
        </mxCell>
        <mxCell id="_-dxfybHBUWcMc495bwz-0" value="" style="rounded=0;whiteSpace=wrap;html=1;strokeColor=#6c8ebf;dashed=1;strokeWidth=2;fillColor=#dae8fc;" parent="a0xubcgDf1r4rpU3K-4--1" vertex="1">
          <mxGeometry x="383.5" y="341" width="100" height="70" as="geometry" />
        </mxCell>
        <mxCell id="_-dxfybHBUWcMc495bwz-1" value="mysql:latest" style="shadow=0;dashed=0;html=1;strokeColor=none;labelPosition=center;verticalLabelPosition=bottom;verticalAlign=top;outlineConnect=0;align=center;shape=mxgraph.office.databases.database;fillColor=#2072B8;" parent="a0xubcgDf1r4rpU3K-4--1" vertex="1">
          <mxGeometry x="423.5" y="351" width="21.75" height="29.5" as="geometry" />
        </mxCell>
        <mxCell id="_-dxfybHBUWcMc495bwz-12" style="edgeStyle=orthogonalEdgeStyle;rounded=0;orthogonalLoop=1;jettySize=auto;html=1;exitX=0.5;exitY=0;exitDx=0;exitDy=0;entryX=0.5;entryY=1;entryDx=0;entryDy=0;" parent="a0xubcgDf1r4rpU3K-4--1" source="_-dxfybHBUWcMc495bwz-2" target="a0xubcgDf1r4rpU3K-4--4" edge="1">
          <mxGeometry relative="1" as="geometry" />
        </mxCell>
        <mxCell id="_-dxfybHBUWcMc495bwz-2" value="" style="ellipse;whiteSpace=wrap;html=1;aspect=fixed;strokeWidth=1;fillColor=#f5f5f5;strokeColor=#666666;fontColor=#333333;" parent="a0xubcgDf1r4rpU3K-4--1" vertex="1">
          <mxGeometry x="413.38" y="301" width="40" height="40" as="geometry" />
        </mxCell>
        <mxCell id="_-dxfybHBUWcMc495bwz-3" value="mysql-user" style="rounded=1;whiteSpace=wrap;html=1;fillColor=#f5f5f5;strokeColor=#666666;fontColor=#333333;" parent="a0xubcgDf1r4rpU3K-4--1" vertex="1">
          <mxGeometry x="333.38" y="321" width="200.12" height="20" as="geometry" />
        </mxCell>
        <mxCell id="_-dxfybHBUWcMc495bwz-4" value="&lt;div&gt;&lt;span&gt;ports:&amp;nbsp;&lt;/span&gt;&lt;br&gt;&lt;/div&gt;3306:3306" style="text;html=1;strokeColor=none;fillColor=none;align=left;verticalAlign=middle;whiteSpace=wrap;rounded=0;" parent="a0xubcgDf1r4rpU3K-4--1" vertex="1">
          <mxGeometry x="333.38" y="291" width="66.5" height="30" as="geometry" />
        </mxCell>
        <mxCell id="_-dxfybHBUWcMc495bwz-6" style="edgeStyle=orthogonalEdgeStyle;rounded=0;orthogonalLoop=1;jettySize=auto;html=1;entryX=0.5;entryY=1;entryDx=0;entryDy=0;startArrow=classic;startFill=1;" parent="a0xubcgDf1r4rpU3K-4--1" source="_-dxfybHBUWcMc495bwz-8" target="_-dxfybHBUWcMc495bwz-0" edge="1">
          <mxGeometry relative="1" as="geometry" />
        </mxCell>
        <mxCell id="_-dxfybHBUWcMc495bwz-7" value="/var/lib/mysql" style="edgeLabel;html=1;align=center;verticalAlign=middle;resizable=0;points=[];" parent="_-dxfybHBUWcMc495bwz-6" vertex="1" connectable="0">
          <mxGeometry x="-0.3395" y="-1" relative="1" as="geometry">
            <mxPoint x="5" y="-5" as="offset" />
          </mxGeometry>
        </mxCell>
        <mxCell id="_-dxfybHBUWcMc495bwz-8" value="mysql_user_data" style="shape=cylinder3;whiteSpace=wrap;html=1;boundedLbl=1;backgroundOutline=1;size=5;verticalAlign=top;labelPosition=center;verticalLabelPosition=bottom;align=center;fillColor=#ffe6cc;strokeColor=#d79b00;" parent="a0xubcgDf1r4rpU3K-4--1" vertex="1">
          <mxGeometry x="413.38" y="467" width="40" height="25" as="geometry" />
        </mxCell>
        <mxCell id="YOjwBTMzrh_71FQqVvZ7-0" style="edgeStyle=orthogonalEdgeStyle;rounded=0;orthogonalLoop=1;jettySize=auto;html=1;entryX=0.5;entryY=0;entryDx=0;entryDy=0;entryPerimeter=0;" parent="a0xubcgDf1r4rpU3K-4--1" source="a0xubcgDf1r4rpU3K-4--7" target="a0xubcgDf1r4rpU3K-4--38" edge="1">
          <mxGeometry relative="1" as="geometry" />
        </mxCell>
        <mxCell id="YOjwBTMzrh_71FQqVvZ7-1" value="/var/lib/mysql" style="edgeLabel;html=1;align=center;verticalAlign=middle;resizable=0;points=[];" parent="YOjwBTMzrh_71FQqVvZ7-0" vertex="1" connectable="0">
          <mxGeometry x="-0.2415" y="-1" relative="1" as="geometry">
            <mxPoint y="10" as="offset" />
          </mxGeometry>
        </mxCell>
        <mxCell id="YOjwBTMzrh_71FQqVvZ7-2" style="edgeStyle=orthogonalEdgeStyle;rounded=0;orthogonalLoop=1;jettySize=auto;html=1;entryX=0.5;entryY=0;entryDx=0;entryDy=0;entryPerimeter=0;" parent="a0xubcgDf1r4rpU3K-4--1" source="a0xubcgDf1r4rpU3K-4--6" target="a0xubcgDf1r4rpU3K-4--40" edge="1">
          <mxGeometry relative="1" as="geometry" />
        </mxCell>
        <mxCell id="YOjwBTMzrh_71FQqVvZ7-3" value="/data/db" style="edgeLabel;html=1;align=center;verticalAlign=middle;resizable=0;points=[];" parent="YOjwBTMzrh_71FQqVvZ7-2" vertex="1" connectable="0">
          <mxGeometry x="-0.1112" y="-1" relative="1" as="geometry">
            <mxPoint y="7" as="offset" />
          </mxGeometry>
        </mxCell>
        <mxCell id="YOjwBTMzrh_71FQqVvZ7-8" value="" style="endArrow=classic;startArrow=classic;html=1;entryX=0.5;entryY=0;entryDx=0;entryDy=0;" parent="a0xubcgDf1r4rpU3K-4--1" source="a0xubcgDf1r4rpU3K-4--21" target="a0xubcgDf1r4rpU3K-4--2" edge="1">
          <mxGeometry width="50" height="50" relative="1" as="geometry">
            <mxPoint x="624.1600000000001" y="64" as="sourcePoint" />
            <mxPoint x="624.1600000000001" y="114" as="targetPoint" />
            <Array as="points">
              <mxPoint x="670" y="97" />
            </Array>
          </mxGeometry>
        </mxCell>
        <mxCell id="YOjwBTMzrh_71FQqVvZ7-9" value="" style="endArrow=classic;startArrow=classic;html=1;entryX=0.5;entryY=0;entryDx=0;entryDy=0;" parent="a0xubcgDf1r4rpU3K-4--1" source="a0xubcgDf1r4rpU3K-4--21" target="a0xubcgDf1r4rpU3K-4--3" edge="1">
          <mxGeometry width="50" height="50" relative="1" as="geometry">
            <mxPoint x="450" y="107" as="sourcePoint" />
            <mxPoint x="680" y="172" as="targetPoint" />
            <Array as="points">
              <mxPoint x="189" y="97" />
            </Array>
          </mxGeometry>
        </mxCell>
      </root>
    </mxGraphModel>
  </diagram>
</mxfile>
